<svg xmlns="http://www.w3.org/2000/svg" viewBox="0 0 4680 3120"><defs><clipPath id="a"><polygon fill="none" points="3996.14 2700.7 2599.4 2487.79 2851.32 1224.13 4181.8 1593.44 3996.14 2700.7"/></clipPath></defs><g data-name="3"><rect width="4680" height="3120" fill="#fff" data-name="3" opacity="0"/><path fill="#f5f5f7" d="M1685.2,634.19C2361.94,519,3225.85,792.58,3221.05,1483.71,3993.77,1666.09,4061,2266,3878.59,2654.79H629.31C240.55,1469.31,1008.47,749.38,1685.2,634.19Z"/><g clip-path="url(#a)"><path fill="#40947e" d="M3234.64,2618.54c-195.89-257-143.51-629.36-7.66-616.14s212.05,320.69,84.52,641.41Z"/><path fill="#6fc183" d="M3540.72,2611.84c489.15-333,613.88-1010,370.25-1065.76s-554.1,434.18-518.39,1065.13Z"/><path fill="#2e6857" d="M3534.48,2667.67c319.77,1,582.21-262.75,490.62-362s-379.65,24.3-556.47,316.48Z"/></g><ellipse cx="2233.63" cy="2661" fill="#7a8db0" rx="1735.43" ry="99"/><circle cx="1962.56" cy="823.43" r="463.43" fill="#f5f5f7"/><circle cx="1157.61" cy="1070.13" r="150.19" fill="#bebebe" transform="rotate(-45 1157.613 1070.131)"/><circle cx="1138.18" cy="817.63" r="186.72" fill="#f5f5f7" transform="rotate(-45 1138.18 817.62)"/><path fill="#ef7c59" d="M3190.1,1072.86a9.3,9.3,0,0,1-2.2-.26L3114.51,1055a9.47,9.47,0,0,1-7.27-9.28l.67-84.89a261,261,0,0,1-56-47l-68.79,23.85a9.64,9.64,0,0,1-11.35-4.29l-38.1-67.3a9.41,9.41,0,0,1,1.68-11.46l56.16-54.13a275.68,275.68,0,0,1-8.63-79.94l-60.6-29.47a9.47,9.47,0,0,1-5.09-10.62l17.27-75.94c1-4.33,4.16-8.06,9.34-7.36l73.58.92a258.58,258.58,0,0,1,48-61.49l.07-.07-19.11-68.7a9.49,9.49,0,0,1,4.45-10.8l66.1-37.46a9.52,9.52,0,0,1,12,2.22l45.5,55.06a246.47,246.47,0,0,1,74.43-7.43l37.14-67a9.47,9.47,0,0,1,11.19-4.44l71.92,23.22a9.48,9.48,0,0,1,6.52,9.87l-7,76.06a261.14,261.14,0,0,1,59,50l71.21-22.6A9.56,9.56,0,0,1,3510,539l37.18,67.89a9.48,9.48,0,0,1-1.91,11.53l-58.47,53.51a277.43,277.43,0,0,1,7.82,72.14L3560,781.45a9.46,9.46,0,0,1,4.42,10.8l-21.15,74.87a9.07,9.07,0,0,1-9.88,6.84l-72.47-5.77a259.06,259.06,0,0,1-46.31,60.9l23.17,70a9.45,9.45,0,0,1-4,11l-64.67,40a9.59,9.59,0,0,1-12-1.66L3304.73,991a242,242,0,0,1-75.4,8l-30.59,68.29A9.52,9.52,0,0,1,3190.1,1072.86Zm-63.87-34.5,58.44,14,30.08-67.11c1.64-3.62,5.49-6.21,9.35-5.55a233.49,233.49,0,0,0,81.07-8.46,9.32,9.32,0,0,1,9.61,2.69l51,56L3417.47,998l-22.76-68.81a9.5,9.5,0,0,1,2.66-10,239,239,0,0,0,49.77-65.3c1.76-3.37,5.2-5.66,9.15-5l70.88,5.66,17-60.27-63.93-36.54a9.39,9.39,0,0,1-4.75-8.65,257.68,257.68,0,0,0-8.43-77.83,9.47,9.47,0,0,1,2.75-9.4L3527,609.47l-29.88-54.54-70,22.19A9.48,9.48,0,0,1,3417,574.2l-3.6-4.55a241.26,241.26,0,0,0-59.55-49.29,9.49,9.49,0,0,1-4.62-9l6.8-74.39-57.29-18.53-36.28,65.45a9.31,9.31,0,0,1-9,4.84,230.85,230.85,0,0,0-79.94,8,9.24,9.24,0,0,1-9.88-3.07L3119.35,440l-52.75,29.88,18.81,67.37a9.51,9.51,0,0,1-2.8,9.61l-4.25,3.59a240,240,0,0,0-47.09,61.68,9.47,9.47,0,0,1-8.34,5h-.11l-71.6-.89-13.9,61.16,59.47,28.91a9.42,9.42,0,0,1,5.31,9.1,256.32,256.32,0,0,0,9.13,85.49,9.39,9.39,0,0,1-2.55,9.35l-54.91,53,30.6,54,67.5-23.37a9.52,9.52,0,0,1,10.35,2.85l-5.67,8.14,7.19-6.18a242.07,242.07,0,0,0,58.51,48.77,9.51,9.51,0,0,1,4.62,8.21ZM3242.87,920c-51.53,0-101.06-22.82-135.83-62.57-67.19-76.83-62.53-195,10.39-263.41a173.56,173.56,0,0,1,119.13-47.29c51.55,0,101.06,22.77,135.83,62.52,67.17,76.84,62.51,195-10.39,263.45A173.53,173.53,0,0,1,3242.87,920Zm-6.31-354.34a154.72,154.72,0,0,0-106.19,42.19c-65.56,61.49-69.63,167.87-9.1,237.09,31.21,35.68,75.53,56.13,121.6,56.13a154.73,154.73,0,0,0,106.19-42.19c65.54-61.53,69.63-167.91,9.1-237.13C3327,586.11,3282.63,565.66,3236.56,565.66Z"/><path fill="#ef7c59" d="M727.71,1326.27a5.14,5.14,0,0,1-1.28-.15l-42.78-10.23a5.54,5.54,0,0,1-4.24-5.41l.39-49.48a152.49,152.49,0,0,1-32.63-27.39l-40.09,13.9a5.64,5.64,0,0,1-6.62-2.5l-22.21-39.23a5.49,5.49,0,0,1,1-6.68L612,1167.55a160.42,160.42,0,0,1-5-46.59l-35.32-17.18a5.51,5.51,0,0,1-3-6.18l10.07-44.27c.57-2.52,2.42-4.69,5.44-4.29l42.88.54a150.82,150.82,0,0,1,28-35.84l0,0-11.14-40a5.53,5.53,0,0,1,2.6-6.29l38.52-21.83a5.53,5.53,0,0,1,7,1.29l26.52,32.09a143.59,143.59,0,0,1,43.38-4.33l21.65-39.05A5.52,5.52,0,0,1,790.1,933L832,946.48a5.53,5.53,0,0,1,3.81,5.76l-4.05,44.33a152.18,152.18,0,0,1,34.37,29.11l41.51-13.16a5.56,5.56,0,0,1,6.5,2.6l21.67,39.57a5.51,5.51,0,0,1-1.11,6.72l-34.08,31.19a161.82,161.82,0,0,1,4.56,42l38.11,21.79a5.52,5.52,0,0,1,2.58,6.3l-12.33,43.64a5.27,5.27,0,0,1-5.75,4L885.56,1207a151.22,151.22,0,0,1-27,35.49l13.5,40.82a5.52,5.52,0,0,1-2.34,6.42L832,1313a5.6,5.6,0,0,1-7-1l-30.54-33.47a141.21,141.21,0,0,1-43.95,4.64L732.74,1323A5.53,5.53,0,0,1,727.71,1326.27Zm-37.23-20.1,34.06,8.16,17.53-39.11a5.29,5.29,0,0,1,5.45-3.23,136.1,136.1,0,0,0,47.25-4.94,5.45,5.45,0,0,1,5.61,1.58l29.75,32.6,30.09-18.6L847,1242.53a5.52,5.52,0,0,1,1.55-5.84,139.39,139.39,0,0,0,29-38.06,5.14,5.14,0,0,1,5.33-2.93l41.32,3.3,9.91-35.13-37.26-21.29a5.5,5.5,0,0,1-2.77-5,150,150,0,0,0-4.92-45.36,5.53,5.53,0,0,1,1.61-5.48l33.33-30.49-17.41-31.79-40.8,12.93a5.52,5.52,0,0,1-5.89-1.7l-2.11-2.65a140.63,140.63,0,0,0-34.7-28.73,5.54,5.54,0,0,1-2.7-5.26l4-43.36L791,944.85,769.89,983a5.4,5.4,0,0,1-5.24,2.82,134.59,134.59,0,0,0-46.6,4.66,5.37,5.37,0,0,1-5.75-1.79l-25.83-31.25-30.74,17.42,11,39.26a5.53,5.53,0,0,1-1.63,5.6l-2.48,2.09a139.91,139.91,0,0,0-27.44,36,5.53,5.53,0,0,1-4.86,2.91h-.07l-41.73-.52-8.1,35.65L615,1112.64a5.48,5.48,0,0,1,3.09,5.3,149.51,149.51,0,0,0,5.33,49.83,5.48,5.48,0,0,1-1.49,5.45l-32,30.86,17.83,31.49L647.14,1222a5.54,5.54,0,0,1,6,1.66l-3.31,4.74,4.19-3.6a141,141,0,0,0,34.1,28.42,5.57,5.57,0,0,1,2.7,4.79Zm68-69c-30,0-58.9-13.29-79.17-36.46-39.15-44.78-36.44-113.66,6.06-153.53a101.17,101.17,0,0,1,69.44-27.56A105.41,105.41,0,0,1,834,1056.07c39.15,44.78,36.44,113.66-6.05,153.55A101.15,101.15,0,0,1,758.46,1237.18Zm-3.67-206.52a90.21,90.21,0,0,0-61.9,24.59c-38.21,35.84-40.58,97.84-5.3,138.18,18.19,20.8,44,32.72,70.87,32.72a90.2,90.2,0,0,0,61.9-24.59c38.19-35.86,40.58-97.86,5.3-138.21C807.47,1042.58,781.64,1030.66,754.79,1030.66Z"/><path fill="#f3ce90" d="M3733,1249.16a5.14,5.14,0,0,1-1.28-.15L3689,1238.78a5.54,5.54,0,0,1-4.24-5.41l.39-49.48a152.25,152.25,0,0,1-32.63-27.4l-40.09,13.9a5.62,5.62,0,0,1-6.62-2.5l-22.21-39.22a5.49,5.49,0,0,1,1-6.68l32.74-31.55a160.42,160.42,0,0,1-5-46.59L3577,1026.67a5.51,5.51,0,0,1-3-6.18l10.07-44.27c.57-2.52,2.42-4.7,5.44-4.29l42.88.54a150.62,150.62,0,0,1,28-35.84l0,0-11.14-40a5.53,5.53,0,0,1,2.6-6.29l38.52-21.84a5.55,5.55,0,0,1,7,1.3l26.52,32.09a143.59,143.59,0,0,1,43.38-4.33l21.65-39.05a5.52,5.52,0,0,1,6.52-2.59l41.91,13.53a5.53,5.53,0,0,1,3.81,5.76l-4.05,44.33a152.18,152.18,0,0,1,34.37,29.11L3913,935.4a5.59,5.59,0,0,1,6.51,2.61l21.66,39.57a5.51,5.51,0,0,1-1.11,6.72L3906,1015.49a161.77,161.77,0,0,1,4.56,42l38.11,21.79a5.51,5.51,0,0,1,2.58,6.29l-12.33,43.64a5.27,5.27,0,0,1-5.75,4l-42.24-3.36a151.22,151.22,0,0,1-27,35.49l13.5,40.82a5.53,5.53,0,0,1-2.34,6.42l-37.69,23.3a5.6,5.6,0,0,1-7-1l-30.54-33.47a141.2,141.2,0,0,1-43.95,4.63l-17.83,39.81A5.53,5.53,0,0,1,3733,1249.16Zm-37.23-20.1,34.06,8.16,17.53-39.11a5.29,5.29,0,0,1,5.45-3.23,136.1,136.1,0,0,0,47.25-4.94,5.46,5.46,0,0,1,5.61,1.57l29.75,32.61,30.09-18.6-13.26-40.1a5.52,5.52,0,0,1,1.55-5.84,139.54,139.54,0,0,0,29-38.06,5.14,5.14,0,0,1,5.33-2.93l41.32,3.29,9.91-35.12-37.26-21.3a5.48,5.48,0,0,1-2.77-5,150,150,0,0,0-4.92-45.36,5.53,5.53,0,0,1,1.61-5.48l33.33-30.49L3912,947.3l-40.8,12.93a5.52,5.52,0,0,1-5.89-1.7l-2.11-2.65a140.63,140.63,0,0,0-34.7-28.73,5.55,5.55,0,0,1-2.7-5.26l4-43.36-33.39-10.79-21.15,38.14a5.4,5.4,0,0,1-5.24,2.82,134.59,134.59,0,0,0-46.6,4.66,5.37,5.37,0,0,1-5.75-1.79l-25.83-31.25-30.74,17.41L3672,937a5.53,5.53,0,0,1-1.63,5.6l-2.48,2.09a139.91,139.91,0,0,0-27.44,35.95,5.53,5.53,0,0,1-4.86,2.91h-.07l-41.73-.52-8.1,35.65,34.66,16.85a5.48,5.48,0,0,1,3.09,5.3,149.54,149.54,0,0,0,5.33,49.83,5.48,5.48,0,0,1-1.49,5.45l-32,30.86,17.83,31.49,39.34-13.62a5.55,5.55,0,0,1,6,1.65l-3.31,4.75,4.19-3.6a141,141,0,0,0,34.1,28.42,5.57,5.57,0,0,1,2.7,4.79Zm68-69c-30,0-58.9-13.29-79.17-36.46-39.15-44.78-36.44-113.66,6.06-153.53a101.17,101.17,0,0,1,69.44-27.56A105.41,105.41,0,0,1,3839.28,979c39.15,44.78,36.44,113.66-6.05,153.55A101.15,101.15,0,0,1,3763.79,1160.07Zm-3.67-206.52a90.21,90.21,0,0,0-61.9,24.59c-38.21,35.84-40.58,97.84-5.3,138.18,18.19,20.8,44,32.72,70.87,32.72a90.2,90.2,0,0,0,61.9-24.59c38.19-35.86,40.58-97.86,5.3-138.21C3812.8,965.47,3787,953.55,3760.12,953.55Z"/><rect width="2197.55" height="1298.19" x="1010.76" y="910.91" fill="#d1dbed" opacity=".7" rx="51.13"/><rect width="2197.55" height="1298.18" x="937.51" y="821.38" fill="#99b1da" rx="51.13"/><path fill="#3d5891" d="M3074,821.38H998.55a61,61,0,0,0-61,61v134.29H3135.07V882.42A61,61,0,0,0,3074,821.38Z"/><path fill="#fff" d="M2440.19,965.85h-1406a39.68,39.68,0,0,1-39.67-39.68h0a39.67,39.67,0,0,1,39.67-39.68h1406a39.68,39.68,0,0,1,39.68,39.68h0A39.69,39.69,0,0,1,2440.19,965.85Z"/><path fill="#fff" d="M3076.06,925.15a24.42,24.42,0,1,1-24.42-24.42A24.42,24.42,0,0,1,3076.06,925.15Z"/><path fill="#fff" d="M2995.46,925.15A24.42,24.42,0,1,1,2971,900.73,24.42,24.42,0,0,1,2995.46,925.15Z"/><path fill="#fff" d="M2914.86,925.15a24.42,24.42,0,1,1-24.42-24.42A24.42,24.42,0,0,1,2914.86,925.15Z"/><path fill="#5681bf" d="M1877.58,463.26H1170.83a21,21,0,0,0-21,21V729.81a21,21,0,0,0,21,21h576.81l84.49,147.86V750.84h45.45a21,21,0,0,0,21-21V484.28A21,21,0,0,0,1877.58,463.26Z"/><circle cx="1328.36" cy="612.3" r="115.13" fill="#fff" transform="rotate(-85.93 1328.444 612.272)"/><circle cx="1328.36" cy="572.73" r="30.45" fill="#3d5891"/><path fill="#3d5891" d="M1328.36,612.82h0a43.76,43.76,0,0,0-43.76,43.75v62.26a115.48,115.48,0,0,0,87.51,0V656.57A43.75,43.75,0,0,0,1328.36,612.82Z"/><path fill="#fff" d="M1702.59,573.14H1531.66A29.17,29.17,0,0,1,1502.5,544h0a29.16,29.16,0,0,1,29.16-29.16h170.93A29.16,29.16,0,0,1,1731.75,544h0A29.17,29.17,0,0,1,1702.59,573.14Z"/><path fill="#fff" d="M1807,679.73H1531.66a29.16,29.16,0,0,1-29.16-29.16h0a29.17,29.17,0,0,1,29.16-29.17H1807a29.17,29.17,0,0,1,29.16,29.17h0A29.16,29.16,0,0,1,1807,679.73Z"/><path fill="#3d5891" d="M3573.84,1234.05v82.83a66.52,66.52,0,0,1-66.51,66.52H3181.77l-46.46,82.84V1234.05a66.52,66.52,0,0,1,66.51-66.52h305.51A66.52,66.52,0,0,1,3573.84,1234.05Z" opacity=".2"/><path fill="#5681bf" d="M3528.86,1187.5v82.84a66.52,66.52,0,0,1-66.52,66.51H3136.79l-46.47,82.84V1187.5a66.52,66.52,0,0,1,66.52-66.51h305.5A66.52,66.52,0,0,1,3528.86,1187.5Z"/><path fill="#fff" d="M3344.87,1232.4a32.56,32.56,0,1,1-32.55-32.55A32.55,32.55,0,0,1,3344.87,1232.4Z"/><path fill="#fff" d="M3451.47,1232.4a32.56,32.56,0,1,1-32.55-32.55A32.55,32.55,0,0,1,3451.47,1232.4Z"/><path fill="#fff" d="M3240.87,1232.4a32.56,32.56,0,1,1-32.55-32.55A32.55,32.55,0,0,1,3240.87,1232.4Z"/><path fill="#f5b0a6" d="M1078.74,2561.74l8.82,52.84c-11,29.05-6.18,65.84-6.18,65.84l216.18.19c-23.36-43.76-124.77-47.07-135.43-68s-15.36-83.07-15.36-83.07Z"/><path fill="#243354" d="M1127.28,2617.37c-.33-7.57,5.26-34.81,24.87-42.91,2.43,14.89,5.73,29.78,10,38.13,10.66,20.95,112.07,24.26,135.43,68l-216.18-.19s-4.87-36.79,6.18-65.84C1087.56,2614.58,1126.59,2631,1127.28,2617.37Z"/><path fill="#fff" d="M1291.75,2672.26a46.64,46.64,0,0,1,5.81,8.35l-216.18-.19s-.43-3.25-.74-8.56Z"/><path fill="#fff" d="M1146.35,2623a1.26,1.26,0,0,0,1.12-.83c0-.08,3.25-8.89,9.55-11.66a10.26,10.26,0,0,1,8.38.17,1.25,1.25,0,0,0,1.63-.67,1.23,1.23,0,0,0-.66-1.62,12.66,12.66,0,0,0-10.36-.15c-7.28,3.2-10.74,12.7-10.88,13.1a1.26,1.26,0,0,0,.75,1.59A1.58,1.58,0,0,0,1146.35,2623Z"/><path fill="#fff" d="M1166.79,2637.32a1.22,1.22,0,0,0,1.11-.82c0-.09,3.26-8.9,9.55-11.67a10.26,10.26,0,0,1,8.38.17,1.24,1.24,0,1,0,1-2.29,12.63,12.63,0,0,0-10.35-.15c-7.29,3.2-10.74,12.7-10.89,13.1a1.25,1.25,0,0,0,.75,1.59A1.33,1.33,0,0,0,1166.79,2637.32Z"/><path fill="#fff" d="M1200.32,2646.88a1.25,1.25,0,0,0,1.11-.83c0-.09,3.26-8.9,9.55-11.66a10.26,10.26,0,0,1,8.38.16,1.24,1.24,0,0,0,1-2.29,12.69,12.69,0,0,0-10.36-.14c-7.28,3.2-10.73,12.69-10.88,13.1a1.24,1.24,0,0,0,.75,1.58A1.34,1.34,0,0,0,1200.32,2646.88Z"/><path fill="#f5b0a6" d="M797.92,2561.74l8.83,52.84c-11,29.05-6.18,65.84-6.18,65.84l216.18.19c-23.36-43.76-124.77-47.07-135.44-68S866,2529.52,866,2529.52Z"/><path fill="#243354" d="M846.47,2617.37c-.33-7.57,5.25-34.81,24.86-42.91,2.44,14.89,5.73,29.78,10,38.13,10.67,20.95,112.08,24.26,135.44,68l-216.18-.19s-4.87-36.79,6.18-65.84C806.75,2614.58,845.77,2631,846.47,2617.37Z"/><path fill="#fff" d="M1010.94,2672.26a46.64,46.64,0,0,1,5.81,8.35l-216.18-.19s-.43-3.25-.75-8.56Z"/><path fill="#fff" d="M865.54,2623a1.26,1.26,0,0,0,1.12-.83c0-.08,3.25-8.89,9.55-11.66a10.26,10.26,0,0,1,8.38.17,1.24,1.24,0,0,0,1-2.29,12.66,12.66,0,0,0-10.36-.15c-7.28,3.2-10.74,12.7-10.88,13.1a1.25,1.25,0,0,0,.75,1.59A1.58,1.58,0,0,0,865.54,2623Z"/><path fill="#fff" d="M886,2637.32a1.24,1.24,0,0,0,1.12-.82c0-.09,3.25-8.9,9.55-11.67a10.26,10.26,0,0,1,8.38.17,1.24,1.24,0,1,0,1-2.29,12.66,12.66,0,0,0-10.36-.15c-7.28,3.2-10.74,12.7-10.88,13.1a1.25,1.25,0,0,0,.75,1.59A1.31,1.31,0,0,0,886,2637.32Z"/><path fill="#fff" d="M919.5,2646.88a1.27,1.27,0,0,0,1.12-.83c0-.09,3.25-8.9,9.55-11.66a10.26,10.26,0,0,1,8.38.16,1.24,1.24,0,1,0,1-2.29,12.69,12.69,0,0,0-10.36-.14c-7.28,3.2-10.74,12.69-10.88,13.1a1.24,1.24,0,0,0,.75,1.58A1.33,1.33,0,0,0,919.5,2646.88Z"/><path fill="#2c4da2" d="M1175.34,1807.49c57.66,227.71,32.37,724.22,19.31,793.93H1057.57c13-161.72-57.3-530.09-57.3-530.09-19.58,290-79.78,527.3-79.78,527.3H767.09l79.42-784.44,162.1-54.84Z"/><path fill="#bfbfbf" d="M1171.44,2559.29a1.39,1.39,0,0,0,1.39-1.29c.33-4.92,32.76-494.63-20.34-725.71a1.39,1.39,0,0,0-2.71.62c53,230.68,20.61,720,20.27,724.9a1.39,1.39,0,0,0,1.3,1.48Z"/><path fill="#bfbfbf" d="M1190.3,2575.25a1.39,1.39,0,0,0,0-2.78l-117.5-1.45a1.39,1.39,0,0,0,0,2.78l117.5,1.45Z"/><path fill="#bfbfbf" d="M917.59,2569.45a1.39,1.39,0,0,0,0-2.78l-133.46-2.9a1.39,1.39,0,0,0-.06,2.78l133.46,2.9Z"/><path fill="#6fc183" d="M967.6,1353.62s12.9,421.45-88.16,372S789.13,1573,967.6,1353.62Z"/><path fill="#2e6857" d="M1072.39,1271.15c56.48,69.57,108.08,405,114.53,583.48H840.73c17.2-305.34,124.27-551.27,170.72-598.17C1057.91,1246.11,1072.39,1271.15,1072.39,1271.15Z"/><path fill="#f5b0a6" d="M1016.17,1212.57c2.54,15.6-.36,38.09-4.72,43.89,8.35,20.31,57,24.48,60.94,14.69,2.9-14.15,4.35-31.19,4.35-31.19,9.79,8,46.42,8.16,45.7-50.24,11.24-6.16,13.42-13.78,13.42-13.78-4.72-.72-16.32-10.15-17.77-20.31s1.08-59.12-42.8-67.1-64.2,8.34-73.63,29S978.09,1152.73,1016.17,1212.57Z"/><path fill="#1c1c1c" d="M1084.34,1092.37a4.61,4.61,0,0,1-1.71.79c2.72,5.16,2.45,27.47-26.38,19.58,13,18.23,4.89,21.76,4.89,21.76,11.7,21.49,5.44,31.29-2.17,33.46s-9,14.69-8.16,17.68c3.26,15.51,14.69,44.61-25,39.17-6.8,3.81-13.6-1.9-18.77-18.49s-61.2-64.2-18.5-94.94c-7.61-15.5,13.06-15.5,13.06-16.32,2.72-33.19,23.94-12,24.75-15.5,31.49-48.88,99.92-33.82,82.64,12.75a9.88,9.88,0,0,1-15.82,3.91l-.08-.07C1090.72,1094,1086.91,1090.46,1084.34,1092.37Z"/><path fill="#1c1c1c" d="M1091.13,1143.47a50.88,50.88,0,0,1,14.26-5.91,2.15,2.15,0,0,0,0-4.15c-5.8-1.77-13.14,1-17.22,7A2.15,2.15,0,0,0,1091.13,1143.47Z"/><path fill="#1c1c1c" d="M1104.53,1152.46c0,4.35-2,7.88-4.4,7.88s-4.39-3.53-4.39-7.88,2-7.89,4.39-7.89S1104.53,1148.1,1104.53,1152.46Z"/><path fill="#bfbfbf" d="M1100.75,1164.21a7.1,7.1,0,0,1-3.07-.71,10.15,10.15,0,0,1-5.15-6.31.7.7,0,0,1,.46-.86.69.69,0,0,1,.87.46,8.73,8.73,0,0,0,4.42,5.45,5.3,5.3,0,0,0,4.31.23.69.69,0,1,1,.53,1.28A6.25,6.25,0,0,1,1100.75,1164.21Z"/><path fill="#f18a8b" d="M1111.56,1181.47c0,9-7.63,16.23-17,16.23s-17-7.26-17-16.23,7.64-16.23,17-16.23S1111.56,1172.51,1111.56,1181.47Z"/><circle cx="1050.99" cy="1172.13" r="16.5" fill="#f18a8b"/><path fill="#bfbfbf" d="M1051,1160.38a11.69,11.69,0,0,0-9.24,4.48.69.69,0,1,0,1.09.86,10.35,10.35,0,0,1,12.59-2.94c-.15,0-.3,0-.45,0a7,7,0,1,0,6.33,10.06,10.37,10.37,0,0,1-4.32,7.8.7.7,0,0,0,.4,1.26.71.71,0,0,0,.41-.13,11.76,11.76,0,0,0-6.81-21.34Zm4,15a5.66,5.66,0,1,1,5.65-5.66A5.67,5.67,0,0,1,1055,1175.43Z"/><path fill="#fff" d="M1102.31,1203c5.44,1.27,11.6,3.08,12,4.17C1114.64,1210.76,1104.67,1217.11,1102.31,1203Z"/><path fill="#bfbfbf" d="M1108.14,1216.22a6.09,6.09,0,0,1-2.09-.38,7.14,7.14,0,0,1-4.2-4.07.7.7,0,0,1,.45-.88.68.68,0,0,1,.87.45,5.81,5.81,0,0,0,3.36,3.19,4.51,4.51,0,0,0,4-.44.71.71,0,0,1,1,.22.7.7,0,0,1-.23,1A5.86,5.86,0,0,1,1108.14,1216.22Z"/><path fill="#1c1c1c" d="M1022.88,1081.88h0a.69.69,0,0,1-.64-.74c.31-4.25-.77-7.8-3-10-2.06-2-5-2.76-8.7-2.34a.69.69,0,1,1-.16-1.38c4.09-.47,7.48.47,9.82,2.72,2.58,2.47,3.81,6.41,3.46,11.08A.69.69,0,0,1,1022.88,1081.88Z"/><path fill="#1c1c1c" d="M1115.37,1085.69h-.1a.68.68,0,0,1-.59-.78c1.19-8.37-.48-15.28-5-20.54-5.94-6.94-16.88-10.86-30.78-11a.69.69,0,0,1-.69-.7.72.72,0,0,1,.7-.69c14.32.18,25.62,4.28,31.83,11.53,4.77,5.57,6.56,12.85,5.3,21.63A.69.69,0,0,1,1115.37,1085.69Z"/><path fill="#1c1c1c" d="M1065.31,1135.47l-.15,0a.68.68,0,0,1-.52-.83c.08-.37.2-.78.33-1.21,1.07-3.73,2.71-9.36-9.5-15.7a.69.69,0,0,1-.29-.94.68.68,0,0,1,.93-.29c13.22,6.86,11.32,13.4,10.19,17.31-.12.41-.23.79-.31,1.14A.7.7,0,0,1,1065.31,1135.47Z"/><path fill="#1c1c1c" d="M1067.76,1165.66a.69.69,0,0,1-.47-1.2s3.75-3.73,1.7-13.22a.69.69,0,0,1,.53-.82.69.69,0,0,1,.83.53c2.23,10.33-1.94,14.36-2.11,14.53A.74.74,0,0,1,1067.76,1165.66Z"/><path fill="#1c1c1c" d="M1069.67,1168.66a.71.71,0,0,1-.59-.32.69.69,0,0,1,.21-1c3.32-2.13,1.91-6.5,1.89-6.54a.7.7,0,0,1,.44-.88.69.69,0,0,1,.88.44c.63,1.87.91,6-2.46,8.15A.7.7,0,0,1,1069.67,1168.66Z"/><path fill="#1c1c1c" d="M969.56,1151.79a.7.7,0,0,1-.66-.47c-2-6-1.66-13.9.9-20.6a28.33,28.33,0,0,1,18-17.28.7.7,0,0,1,.88.44.69.69,0,0,1-.44.88,27,27,0,0,0-17.18,16.45c-2.45,6.42-2.78,14-.88,19.67a.7.7,0,0,1-.44.88A.78.78,0,0,1,969.56,1151.79Z"/><path fill="#1c1c1c" d="M1020.43,1080.52a.7.7,0,0,1-.64-.41c-3.49-8-10-5.46-10.25-5.35a.7.7,0,1,1-.52-1.29c.08,0,8-3.14,12.05,6.08a.69.69,0,0,1-.36.91A.71.71,0,0,1,1020.43,1080.52Z"/><path fill="#f5b0a6" d="M1336.4,1637.36c9.43-11,9.69-9.49,27.78-9.46s50.49-11.72,56.26-23.63c0,0,12.86-3.63,17.42-13.36,10.2-.77,25.16-11.5,16-17.15s-105.36-18.14-118.27-34.73-5.52-49.63-20.33-40.82-4.71,55.72-15.5,76.52c-13.84,19.2-25,33.82-25,33.82Z"/><path fill="#bfbfbf" d="M1385.11,1591a1.14,1.14,0,0,1-.35-1.06,1.16,1.16,0,0,1,1.35-.91c.25,0,25.57,4.77,49.57-.21a1.15,1.15,0,0,1,.47,2.26c-24.47,5.08-50.22.26-50.47.21A1,1,0,0,1,1385.11,1591Z"/><path fill="#bfbfbf" d="M1378.32,1610.56a1.15,1.15,0,0,1,.76-2c.2,0,19.88-.52,38.52-5.33a1.16,1.16,0,0,1,.57,2.24c-18.9,4.87-38.84,5.39-39,5.39A1.12,1.12,0,0,1,1378.32,1610.56Z"/><path fill="#6fc183" d="M1007.26,1308.39c18.24-19.45,50.45-15.24,63.8,7.84,33.13,57.29,25.78,159.93,29.85,245.43,4.84,101.6,74.19,114.5,172.56,37.09l82.25,46.77c-61.28,66.12-162.88,195.13-335.44,150C871.09,1756.46,924.42,1396.76,1007.26,1308.39Z"/><path fill="#bfbfbf" d="M994.48,2054a2.15,2.15,0,0,0,.74-.14,2.07,2.07,0,0,0,1.18-2.67c-12.59-32.47-26-62.26-37.86-88.54-17.23-38.25-30.85-68.46-34.61-90.08a2.06,2.06,0,0,0-4.06.71c3.85,22.13,17.56,52.55,34.91,91.06,11.82,26.24,25.22,56,37.77,88.34A2.07,2.07,0,0,0,994.48,2054Z"/><path fill="#3d5891" d="M1867.71,1618.08h-63.55v99.32H1679.68v-99.32H1495v-98.32l170.16-261.18h139v261.18h63.55Zm-188-98.32v-135l-85.55,135Z"/><path fill="#3d5891" d="M2073,1724.35q-81.76,0-129.43-64.39t-47.67-169.32q0-107.6,48.83-169.83t130.59-62.23q85.72,0,131.42,66.37t45.69,169.66q0,105.27-49.17,167.5T2073,1724.35Zm1.33-96q28.47,0,38.07-36.25T2122,1493q0-86.4-12.75-112.88t-34.59-26.48q-26.49,0-36.58,34.92t-10.1,96.17q0,83.1,10.1,113.38T2074.28,1628.35Z"/><path fill="#3d5891" d="M2662.87,1618.08h-63.56v99.32H2474.84v-99.32H2290.12v-98.32l170.16-261.18h139v261.18h63.56Zm-188-98.32v-135l-85.55,135Z"/><polygon fill="#3d5891" points="2521.41 1730.22 2521.41 2487.79 3124.75 2487.79 3124.75 1841.88 2991.92 1730.22 2521.41 1730.22" opacity=".2"/><polygon fill="#f3ce90" points="2567.89 1790.09 2567.89 2547.65 3171.22 2547.65 3171.22 1901.74 3038.39 1790.09 2567.89 1790.09"/><polygon fill="#f19a6d" points="3172.27 1902.79 3048.86 1910.62 3039.43 1791.13 3172.27 1902.79"/><rect width="287.8" height="87.32" x="2617.89" y="1829.37" fill="#fff"/><path d="M2783.77,2151.51a10.64,10.64,0,0,1-7.57-3.14l-75.79-75.79a10.71,10.71,0,0,1,15.15-15.15l75.79,75.79a10.72,10.72,0,0,1-7.58,18.29Z"/><path d="M2708,2151.51a10.72,10.72,0,0,1-7.57-18.29l75.79-75.79a10.71,10.71,0,0,1,15.15,15.15l-75.79,75.79A10.66,10.66,0,0,1,2708,2151.51Z"/><path d="M3021.31,2151.51a10.66,10.66,0,0,1-7.58-3.14l-75.79-75.79a10.71,10.71,0,0,1,15.15-15.15l75.79,75.79a10.72,10.72,0,0,1-7.57,18.29Z"/><path d="M2945.52,2151.51a10.72,10.72,0,0,1-7.58-18.29l75.79-75.79a10.71,10.71,0,0,1,15.15,15.15l-75.79,75.79A10.64,10.64,0,0,1,2945.52,2151.51Z"/><path d="M2936.08,2334.57h0a10.7,10.7,0,0,1-7.64-3.2l-39.86-40.58-39.91,40.58a10.71,10.71,0,0,1-15.27,0l-39.94-40.58-39.95,40.58a10.71,10.71,0,0,1-15.27-15l47.58-48.35a10.73,10.73,0,0,1,15.27,0l39.94,40.59,39.91-40.58a10.7,10.7,0,0,1,7.64-3.2h0a10.7,10.7,0,0,1,7.64,3.2l39.86,40.57L2976,2268a10.72,10.72,0,0,1,7.64-3.2h0a10.69,10.69,0,0,1,7.64,3.2l47.52,48.35a10.71,10.71,0,0,1-15.28,15l-39.88-40.58-39.89,40.58A10.69,10.69,0,0,1,2936.08,2334.57Z"/></g></svg>